<svg width="746" height="465" viewBox="0 0 746 465" fill="none" xmlns="http://www.w3.org/2000/svg">
<path d="M265.976 1.5804L0.561279 0.195312V464.523H703.276H745.667L744.521 462.336L741.917 458.899L738.792 455.566L734.626 451.608L730.252 447.962L722.232 442.859L712.337 437.443L699.839 431.714L679.955 424.207L652.556 413.682L617.778 399.691L589.595 386.099L561.213 369.909L539.688 357.085L518.514 344.211L502.592 333.302L485.314 320.304L466.512 305.76L446.995 289.042L427.504 271.695L407.819 252.398L393.526 237.842L380.616 223.925L366.029 208.836L346.747 188.38L328.809 170.045L300.124 141.361L282.14 124.286L268.253 114.27L265.976 1.5804Z" fill="black"/>
</svg>
