<svg width="771" height="470" viewBox="0 0 771 470" fill="none" xmlns="http://www.w3.org/2000/svg">
<path d="M266.217 0.174316L0.0993652 0.174541V469.948H738.491L764.847 442.544L770.736 438.198L769.754 431.609L763.586 418.991L752.647 407.578L738.491 400.486L726.294 397.401L704.844 396.7L682.588 395.9L654.196 394.609L629.837 393.319L599.671 391.383L580.474 388.157L561.761 383.801L539.176 373.477L514.308 357.51L495.442 344.933L479.72 329.758L466.733 314.036L454.702 299.545L442.854 286.836L429.151 268.741L415.799 249.767L401.92 228.86L386.574 207.188L362.112 178.579L338.064 152.873L317.955 136.703L296.395 124.058L267.994 108.717L266.217 0.174316Z" fill="black"/>
</svg>
