<svg width="687" height="512" viewBox="0 0 687 512" fill="none" xmlns="http://www.w3.org/2000/svg">
<path d="M294.959 0.702148L0.959961 1.66455V508.812L627.352 511.855H686.801L685.786 508.812L684.163 503.232L681.221 498.362L678.279 493.189L673.207 488.116L667.424 483.754L656.366 478.073L638.744 471.544L608.824 461.954L580.054 449.871L550.901 432.609L526.351 416.69L502.883 398.753L482.871 380.985L467.721 367.144L443.22 340.773L414.043 300.935L399.268 278.865L389.776 261.952L369.812 230.604L360.573 214.766L348.199 197.442L335.33 176.488L324.345 158.889L313.681 147.277L296.381 136.376L294.959 0.702148Z" fill="black"/>
</svg>
