<svg width="801" height="495" viewBox="0 0 801 495" fill="none" xmlns="http://www.w3.org/2000/svg">
<path d="M0.940757 10.9806C0.940757 10.9806 0.942359 10.9805 0.50009 6.00005C0.0578221 1.01964 0.0598592 1.01947 0.0623845 1.01925L0.0938329 1.0165L0.177016 1.00943C0.248122 1.00348 0.35044 0.995091 0.483504 0.984623C0.749625 0.963673 1.13875 0.934422 1.64711 0.899724C2.6638 0.830311 4.15755 0.73911 6.09825 0.648991C9.97949 0.46877 15.6496 0.292897 22.8677 0.304768C37.3021 0.328496 57.9382 1.103 82.8471 4.09839C132.648 10.0872 199.637 24.9668 268.301 60.5611C336.074 95.6932 386.694 115.333 420.286 126.179C437.083 131.603 449.623 134.828 457.924 136.692C462.074 137.624 465.165 138.216 467.197 138.572C468.214 138.751 468.966 138.87 469.454 138.943C469.697 138.98 469.875 139.005 469.987 139.021L470.072 139.032L470.105 139.037L470.128 139.04C470.128 139.04 470.125 139.039 469.5 144C468.875 148.961 468.873 148.961 468.871 148.96L468.865 148.96L468.848 148.958L468.796 148.951C468.753 148.945 468.693 148.937 468.617 148.926C468.466 148.906 468.248 148.874 467.964 148.832C467.397 148.746 466.566 148.614 465.471 148.422C463.281 148.038 460.035 147.415 455.733 146.449C447.127 144.516 434.292 141.21 417.214 135.696C383.056 124.667 331.926 104.807 263.699 69.4391C198.786 35.7892 135.335 20.9912 87.0001 14.6965V271.525C90.2637 274.071 94.3152 277.198 99.0479 280.786C112.524 291.004 131.509 304.953 153.542 319.873C197.723 349.791 253.727 383.318 302.021 398.737C430.995 439.916 555.73 424.883 649.15 398.686C695.658 385.644 732.006 367.713 756.699 353.065C769.044 345.742 778.469 339.244 784.786 334.594C787.945 332.27 790.326 330.408 791.906 329.138C792.695 328.503 793.285 328.015 793.671 327.692C793.775 327.605 793.864 327.53 793.938 327.467C794.002 327.413 794.055 327.367 794.098 327.331C794.143 327.292 794.176 327.264 794.196 327.247L794.216 327.23L794.219 327.228C794.219 327.228 794.217 327.229 797.5 331C800.783 334.771 800.78 334.774 800.78 334.774L800.776 334.777L800.727 334.82C800.695 334.847 800.65 334.886 800.593 334.935C800.477 335.034 800.311 335.175 800.093 335.358C799.656 335.723 799.016 336.253 798.173 336.93C796.487 338.286 793.993 340.235 790.714 342.648C784.156 347.474 774.456 354.158 761.801 361.665C736.494 376.677 699.342 394.996 651.85 408.314C557.27 434.837 430.421 450.23 298.979 408.263C249.242 392.383 192.247 358.16 147.935 328.153C125.722 313.11 106.588 299.053 93.0061 288.755C90.8629 287.13 88.8577 285.598 87.0001 284.171V495H1.00009V10.9755L0.95365 10.9795L0.942115 10.9805L0.940757 10.9806Z" fill="black"/>
</svg>
