<svg width="439" height="112" viewBox="0 0 439 112" fill="none" xmlns="http://www.w3.org/2000/svg">
<path d="M1.05669 95.6941C-0.00580704 100.58 -0.00324356 100.58 0.000418551 100.581L0.0128087 100.584L0.0559605 100.593L0.215323 100.627C0.353873 100.657 0.556815 100.699 0.822684 100.754C1.35436 100.864 2.13787 101.023 3.16173 101.222C5.20946 101.621 8.21905 102.183 12.0993 102.843C19.8592 104.163 31.1048 105.874 45.1061 107.452C73.1003 110.607 112.156 113.235 156.42 111.126C244.826 106.913 354.692 83.7638 438.426 7.38824L431.687 0C350.421 74.1244 243.287 96.9751 155.944 101.137C112.333 103.215 73.8256 100.625 46.2261 97.5146C32.4305 95.9598 21.3714 94.2763 13.7758 92.9846C9.97832 92.3388 7.04748 91.7911 5.07421 91.4066C4.08758 91.2144 3.34045 91.063 2.84411 90.9606C2.596 90.9093 2.41051 90.8704 2.28924 90.8447L2.15557 90.8162L2.12517 90.8096L2.11913 90.8083C2.11913 90.8083 2.11889 90.8083 2.00835 91.3168C1.8839 91.8894 1.61938 93.1066 1.05669 95.6941Z" fill="black"/>
</svg>
