<svg width="795" height="497" viewBox="0 0 795 497" fill="none" xmlns="http://www.w3.org/2000/svg">
<path d="M7.1167 0.0147276C7.24429 0.00491285 7.37221 0 7.50018 0H34.0002C34.1663 0 34.3324 0.00828171 34.4977 0.0248141L39.4977 0.524814C39.5159 0.526637 39.5341 0.528559 39.5523 0.530581L44.0523 1.03058C44.075 1.0331 44.0977 1.03578 44.1204 1.03861L48.0864 1.53436L52.5523 2.03058C52.575 2.0331 52.5977 2.03578 52.6204 2.03861L64.5591 3.53095L69.4977 4.02481C69.5386 4.02891 69.5795 4.03351 69.6204 4.03861L73.6204 4.53861C73.6494 4.54224 73.6783 4.54612 73.7073 4.55025L77.1639 5.04405L85.1204 6.03861C85.1494 6.04224 85.1783 6.04612 85.2073 6.05025L88.6639 6.54405L96.6204 7.53861C96.6878 7.54704 96.7551 7.55685 96.8222 7.56803L102.822 8.56803C102.875 8.57687 102.928 8.58656 102.981 8.5971L112.902 10.5813L118.822 11.568C118.875 11.5769 118.928 11.5866 118.981 11.5971L128.938 13.5885L134.395 14.5807C134.423 14.5859 134.452 14.5914 134.481 14.5971L139.481 15.5971C139.559 15.6126 139.636 15.6301 139.713 15.6493L143.649 16.6333L152.585 18.6191C152.682 18.6406 152.778 18.6651 152.874 18.6924L159.794 20.6695L163.713 21.6493C163.767 21.6628 163.82 21.6771 163.874 21.6924L170.874 23.6924L170.916 23.7045L170.937 23.7109L180.937 26.7109L180.971 26.7211L187.471 28.7211C187.508 28.7325 187.545 28.7443 187.581 28.7566L198.081 32.2566C198.124 32.2708 198.167 32.2856 198.209 32.301L214.709 38.301C214.738 38.3115 214.766 38.3223 214.795 38.3333L221.295 40.8333L221.321 40.8433L221.357 40.8576L231.357 44.8576C231.429 44.8862 231.499 44.9164 231.569 44.9482L253.531 54.9309L253.569 54.9482L262.531 58.9309C262.6 58.9617 262.669 58.994 262.736 59.0279L268.736 62.0279L268.78 62.0499L268.82 62.0708L279.32 67.5708L279.34 67.5811L287.789 72.054L304.653 80.4865L315.569 85.4482L315.617 85.4704L315.664 85.4924L328.087 91.4555L356.442 103.892L377.342 112.352L401.681 121.789L425.977 129.722L449.755 136.658L460.548 139.111L460.608 139.124L467.336 140.566L471.12 141.039L469.88 150.961L465.88 150.461C465.737 150.443 465.594 150.419 465.453 150.389L458.453 148.889L458.418 148.881L458.392 148.876L447.392 146.376C447.294 146.353 447.197 146.328 447.1 146.3L423.1 139.3C423.07 139.291 423.04 139.282 423.011 139.273C422.99 139.266 422.969 139.26 422.948 139.253L398.448 131.253C398.419 131.244 398.39 131.234 398.361 131.224C398.305 131.204 398.248 131.183 398.193 131.162L373.693 121.662C373.67 121.653 373.647 121.644 373.624 121.635L352.624 113.135C352.597 113.124 352.569 113.112 352.542 113.101C352.525 113.093 352.509 113.086 352.492 113.079L323.992 100.579C323.94 100.556 323.888 100.532 323.837 100.508L311.383 94.5301L300.431 89.5518C300.397 89.5363 300.363 89.5204 300.329 89.5042C300.308 89.4936 300.286 89.483 300.264 89.4721L283.264 80.9721C283.244 80.962 283.223 80.9517 283.203 80.9412C283.189 80.9338 283.175 80.9264 283.161 80.9189L274.68 76.4292L274.661 76.4189L264.221 70.9508L258.366 68.023L249.469 64.0691L249.431 64.0518L227.536 54.0995L217.674 50.1548L211.248 47.6832L194.855 41.7221L184.474 38.2618L178.063 36.2891L178.03 36.2789L168.095 33.2986L161.207 31.3305L157.288 30.3507C157.269 30.346 157.25 30.3412 157.231 30.3363C157.196 30.3271 157.161 30.3176 157.127 30.3076L150.27 28.3486L141.416 26.3809C141.373 26.3714 141.33 26.3613 141.288 26.3507L137.403 25.3796L132.563 24.4115L127.106 23.4193C127.077 23.4141 127.048 23.4086 127.02 23.4029L117.099 21.4187L111.178 20.432C111.125 20.4231 111.072 20.4134 111.02 20.4029L101.099 18.4187L95.2788 17.4487L88.0002 16.5389V280.585L94.5002 285.5L127 309.5L159.5 331L180.5 345L219 367L256.5 387.5L285.5 399.5L321.5 411L349.5 418.5L380 424L410 428L448 430.5H500.5L523.5 428L557 424L589 418.5L615.5 413L641 406.5L670.5 397.5L694.5 388.5L730.5 373L751 361L795 331V497H88.0002H1.00018V6L1.03881 6.00222L0.616699 0.514728L7.1167 0.0147276Z" fill="black"/>
</svg>
