<svg width="474" height="299" viewBox="0 0 474 299" fill="none" xmlns="http://www.w3.org/2000/svg">
<path fill-rule="evenodd" clip-rule="evenodd" d="M368 110.43C329.032 133.139 278.471 150.5 215 150.5H213.944H212.891H211.842H210.796H209.754H208.714H207.678H206.646H205.616H204.59H203.567H202.548H201.531H200.519H199.509H198.502H197.499H196.5H195.503H194.509H193.519H192.532H191.549H190.568H189.591H188.617H187.646H186.678H185.714H184.753H183.795H182.84H181.888H180.94H179.995H179.052H178.114H177.178H176.245H175.315H174.389H173.466H172.546H171.629H170.715H169.804H168.897H167.992H167.091H166.192H165.297H164.405H163.516H162.63H161.747H160.867H159.99H159.117H158.246H157.378H156.514H155.652H154.794H153.938H153.086H152.237H151.39H150.547H149.706H148.869H148.035H147.203H146.375H145.549H144.727H143.907H143.091H142.277H141.466H140.659H139.854H139.052H138.253H137.457H136.664H135.874H135.087H134.302H133.521H132.743H131.967H131.194H130.425H129.657H128.893H128.132H127.374H126.618H125.866H125.116H124.369H123.625H122.884H122.145H121.409H120.677H119.947H119.219H118.495H118V299H16V150.5H15.9075H15.6987H15.4917H15.2864H15.0825H14.8804H14.6797H14.4807H14.2834H14.0876H13.8936H13.7012H13.5103H13.3208H13.1331H12.9468H12.7622H12.5791H12.3977H12.2178H12.0393H11.8625H11.6873H11.5134H11.3413H11.1707H11.0015H10.8337H10.6675H10.5029H10.3398H10.1782H10.0181H9.85938H9.70215H9.54663H9.39233H9.2395H9.08813H8.93848H8.79004H8.64307H8.49756H8.35352H8.21094H8.06982H7.92993H7.7915H7.65479H7.51904H7.38501H7.2522H7.12085H6.99097H6.8623H6.73535H6.60938H6.48486H6.36182H6.24023H6.11987H6.00073H5.88306H5.7666H5.65161H5.53809H5.42554H5.3147H5.20483H5.09644H4.98926H4.88354H4.77905H4.67578H4.57373H4.47314H4.37354H4.27563H4.17871H4.08301H3.98877H3.89551H3.80371H3.71313H3.62354H3.5354H3.44849H3.36279H3.27832H3.19482H3.11279H3.03198H2.95215H2.87378H2.79639H2.72021H2.64526H2.57129H2.49878H2.42725H2.35693H2.2876H2.21948H2.15259H2.08691H2.02222H1.95874H1.89624H1.83496H1.77466H1.71558H1.65771H1.60083H1.54492H1.49023H1.43652H1.38403H1.33252H1.28223H1.23267H1.18433H1.13721H1.09082H1.04565H1.00146H0.958496H0.91626H0.875244H0.835205H0.796143H0.758057H0.720947H0.684814H0.649902H0.615723H0.58252H0.550537H0.519287H0.489014H0.459717H0.431641H0.404053H0.377686H0.352295H0.327881H0.304199H0.281494H0.259766H0.239014H0.218994H0.199951H0.181885H0.164551H0.148193H0.132812H0.118164H0.104492H0.0915527H0.0795898H0.0686035H0.0583496H0.0488281H0.0402832H0.0324707H0.0256348H0.0195312H0.0144043H0.0100098H0.00634766H0.00366211H0.00146484C0.000976562 150.5 0.000732422 150.5 0.000488281 150.171C0.000244141 149.686 0 148.482 0 145.5C0 142.621 0.000244141 141.399 0.000488281 140.881C0.000732422 140.5 0.000976562 140.5 0.00146484 140.5H0.00366211H0.00634766H0.0100098H0.0144043H0.0195312H0.0256348H0.0324707H0.0402832H0.0488281H0.0583496H0.0686035H0.0795898H0.0915527H0.104492H0.118164H0.132812H0.148193H0.164551H0.181885H0.199951H0.218994H0.239014H0.259766H0.281494H0.304199H0.327881H0.352295H0.377686H0.404053H0.431641H0.459717H0.489014H0.519287H0.550537H0.58252H0.615723H0.649902H0.684814H0.720947H0.758057H0.796143H0.835205H0.875244H0.91626H0.958496H1.00146H1.04565H1.09082H1.13721H1.18433H1.23267H1.28223H1.33252H1.38403H1.43652H1.49023H1.54492H1.60083H1.65771H1.71558H1.77466H1.83496H1.89624H1.95874H2.02222H2.08691H2.15259H2.21948H2.2876H2.35693H2.42725H2.49878H2.57129H2.64526H2.72021H2.79639H2.87378H2.95215H3.03198H3.11279H3.19482H3.27832H3.36279H3.44849H3.5354H3.62354H3.71313H3.80371H3.89551H3.98877H4.08301H4.17871H4.27563H4.37354H4.47314H4.57373H4.67578H4.77905H4.88354H4.98926H5.09644H5.20483H5.3147H5.42554H5.53809H5.65161H5.7666H5.88306H6.00073H6.11987H6.24023H6.36182H6.48486H6.60938H6.73535H6.8623H6.99097H7.12085H7.2522H7.38501H7.51904H7.65479H7.7915H7.92993H8.06982H8.21094H8.35352H8.49756H8.64307H8.79004H8.93848H9.08813H9.2395H9.39233H9.54663H9.70215H9.85938H10.0181H10.1782H10.3398H10.5029H10.6675H10.8337H11.0015H11.1707H11.3413H11.5134H11.6873H11.8625H12.0393H12.2178H12.3977H12.5791H12.7622H12.9468H13.1331H13.3208H13.5103H13.7012H13.8936H14.0876H14.2834H14.4807H14.6797H14.8804H15.0825H15.2864H15.4917H15.6987H15.9075H16.1179H16.3301H16.5437H16.759H16.9761H17.1946H17.415H17.637H17.8608H18.0862H18.3132H18.5422H18.7727H19.0049H19.2388H19.4746H19.7119H19.9512H20.1919H20.4346H20.679H20.925H21.1729H21.4226H21.6738H21.927H22.1821H22.4387H22.6973H22.9575H23.2197H23.4836H23.7493H24.0168H24.2861H24.5574H24.8303H25.105H25.3818H25.6602H25.9407H26.2227H26.5068H26.7927H27.0806H27.3701H27.6616H27.9551H28.2502H28.5476H28.8467H29.1475H29.4504H29.7554H30.062H30.3706H30.6812H30.9937H31.3081H31.6245H31.9429H32.2629H32.5852H32.9094H33.2356H33.5637H33.8938H34.2258H34.5598H34.896H35.2339H35.574H35.916H36.2603H36.6062H36.9543H37.3044H37.6567H38.0107H38.3669H38.7253H39.0857H39.448H39.8125H40.179H40.5476H40.9182H41.291H41.6658H42.0427H42.4216H42.8027H43.186H43.5713H43.9587H44.3484H44.74H45.134H45.5298H45.928H46.3281H46.7307H47.1353H47.5417H47.9507H48.3618H48.7749H49.1904H49.6079H50.0278H50.4497H50.8738H51.3003H51.7288H52.1597H52.5928H53.0278H53.4653H53.905H54.3469H54.7913H55.2378H55.6863H56.1375H56.5906H57.0461H57.5039H57.9639H58.4263H58.8909H59.3577H59.8269H60.2986H60.7725H61.2485H61.7271H62.2078H62.6909H63.1763H63.6641H64.1543H64.6467H65.1416H65.6389H66.1384H66.6404H67.1448H67.6514H68.1604H68.6719H69.1858H69.7021H70.2207H70.7417H71.2654H71.7913H72.3196H72.8503H73.3835H73.9192H74.4573H74.9978H75.5408H76.0862H76.634H77.1846H77.7373H78.2927H78.8506H79.4109H79.9736H80.5391H81.1067H81.677H82.25H82.8252H83.4031H83.9836H84.5664H85.1519H85.74H86.3306H86.9236H87.5193H88.1177H88.7185H89.3218H89.9277H90.5364H91.1475H91.7612H92.3777H92.9966H93.6182H94.2422H94.8691H95.4985H96.1304H96.7651H97.4023H98.0425H98.6851H99.3303H99.9783H100.629H101.282H101.938H102.596H103.258H103.922H104.588H105.258H105.93H106.605H107.282H107.962H108.645H109.331H110.019H110.71H111.404H112.101H112.8H113.502H114.208H114.915H115.625H116.339H117.055H117.773H118.495H119.219H119.947H120.677H121.409H122.145H122.884H123.625H124.369H125.116H125.866H126.618H127.374H128.132H128.893H129.657H130.425H131.194H131.967H132.743H133.521H134.302H135.087H135.874H136.664H137.457H138.253H139.052H139.854H140.659H141.466H142.277H143.091H143.907H144.727H145.549H146.375H147.203H148.035H148.869H149.706H150.547H151.39H152.237H153.086H153.938H154.794H155.652H156.514H157.378H158.246H159.117H159.99H160.867H161.747H162.63H163.516H164.405H165.297H166.192H167.091H167.992H168.897H169.804H170.715H171.629H172.546H173.466H174.389H175.315H176.245H177.178H178.114H179.052H179.995H180.94H181.888H182.84H183.795H184.753H185.714H186.678H187.646H188.617H189.591H190.568H191.549H192.532H193.519H194.509H195.503H196.5H197.499H198.502H199.509H200.519H201.531H202.548H203.567H204.59H205.616H206.646H207.678H208.714H209.754H210.796H211.842H212.891H213.944H215C303.811 140.5 366.313 105.478 406.661 70.4734C426.855 52.9536 441.498 35.4354 451.08 22.3166C455.869 15.7597 459.388 10.31 461.699 6.52005C462.854 4.62537 463.707 3.14639 464.265 2.15237C464.544 1.6554 464.75 1.27972 464.882 1.03406L464.97 0.870178L465.027 0.76416L465.058 0.704346L465.064 0.693604C465.063 0.693939 465.063 0.694672 466.07 1.21808L469.5 3.00009C472.645 4.63315 473.56 5.1102 473.826 5.25073C473.935 5.3085 473.935 5.30942 473.934 5.31036L473.929 5.31958L473.915 5.34775L473.865 5.4426C473.822 5.52286 473.761 5.6369 473.682 5.78369C473.524 6.07727 473.292 6.50177 472.985 7.04849C472.371 8.14188 471.457 9.72443 470.237 11.7262C470.159 11.8536 470.08 11.9828 470 12.1136V300H368V110.43Z" fill="black"/>
</svg>
