<svg width="388" height="193" viewBox="0 0 388 193" fill="none" xmlns="http://www.w3.org/2000/svg">
<path d="M0.67334 9.82086C0.67334 9.82086 0.671143 9.82019 1.99988 5L3.06287 1.14417C3.32874 0.17981 3.3291 0.179932 3.3291 0.179932L3.3324 0.180847L3.40979 0.202087L3.66516 0.271851C3.8927 0.333801 4.23389 0.426392 4.68408 0.547546C5.58447 0.789856 6.92065 1.14636 8.65466 1.60059C12.1227 2.50909 17.1812 3.80841 23.5262 5.36707C36.2184 8.48486 54.0479 12.6378 74.5853 16.7753C115.74 25.0665 167.461 33.2313 210.472 32.995C253.478 32.7588 297.616 32.7588 331 32.8178C347.693 32.8474 361.698 32.8916 371.531 32.9285C376.447 32.947 380.321 32.9636 382.965 32.9756C384.287 32.9816 385.302 32.9865 385.987 32.9898L387.009 32.9949L387.022 32.995H387.025C387.025 32.995 387.026 32.995 387 37.9949C386.974 42.9949 386.973 42.9949 386.973 42.9949L386.97 42.9948L385.938 42.9897C385.254 42.9863 384.241 42.9815 382.92 42.9755C381.361 42.9684 379.375 42.9597 377 42.95V193H332V42.8196C331.662 42.819 331.323 42.8184 330.983 42.8178C297.611 42.7588 253.499 42.7588 210.527 42.9949C166.467 43.2369 113.937 34.9042 72.6104 26.5784C69.3352 25.9186 66.1285 25.2584 62.9999 24.602V193H9.99988V12.2805C8.5481 11.9073 7.25159 11.5704 6.12048 11.2742C5.36072 11.0751 4.67542 10.8944 4.06787 10.7333C3.78613 10.6586 3.52112 10.5881 3.27307 10.522C2.8197 10.4012 2.42322 10.2949 2.08557 10.204C1.62512 10.0801 1.2738 9.9848 1.0365 9.92017L0.766602 9.84644L0.696777 9.82727L0.678467 9.8222L0.67334 9.82086Z" fill="#151515"/>
</svg>
