<svg width="578" height="155" viewBox="0 0 578 155" fill="none" xmlns="http://www.w3.org/2000/svg">
<g clip-path="url(#clip0_9_113)">
<path d="M556.282 84.2558C561.716 76.8474 556.347 68.2558 551.637 64.753L92.2743 29.0605L89.3453 38.8021L86.4163 48.5437L556.282 84.2558Z" fill="#A26434" stroke="black" stroke-width="2"/>
<path d="M83.4653 34.9515L516.521 66.7793L515.275 62.4644L92.6501 29.7312L83.4653 34.9515Z" fill="#F9BA8B"/>
<path d="M24.4815 132.814L566.559 142.391C566.559 142.391 571.98 136.559 570.781 130.256C569.583 123.953 568.625 120.22 562.247 112.878L523.544 111.557L64.427 98.0527L17.8287 120.845C17.8287 120.845 15.2815 123.756 17.8286 128.256C20.3758 132.756 24.4815 132.814 24.4815 132.814Z" fill="#A26434" stroke="black" stroke-width="2"/>
<path d="M59.5873 106.947L526.593 121.183L525.647 112.233L63.0619 98.6984L59.5873 106.947Z" fill="#F9BA8B"/>
<path d="M550.438 58.4597C537.978 50.9315 524.281 50.7558 514.282 55.7558L526.483 131.786L566.371 132.126L550.438 58.4597Z" fill="#FCC12E" stroke="black" stroke-width="2"/>
<path d="M565.274 131.777C557.781 124.756 540.281 119.256 527.12 131.451L565.274 131.777Z" fill="black" fill-opacity="0.5" stroke="black" stroke-width="1.5"/>
<path d="M502.374 52.7008C491.185 46.0258 474.281 44.2558 462.781 49.7558L474.707 131.341L515.173 131.683L502.382 52.7011L502.374 52.7008Z" fill="#E88524" stroke="black" stroke-width="2"/>
<path d="M514.287 131.68C504.281 122.256 490.781 117.256 475.516 131.352L514.287 131.68Z" fill="black" fill-opacity="0.5" stroke="black" stroke-width="1.5"/>
<path d="M454.91 48.039C445.822 41.0044 424.317 41.2465 419.781 44.2558L422.316 130.237L463.36 130.591L454.917 48.0492L454.91 48.039Z" fill="#D13316" stroke="black" stroke-width="2"/>
<path d="M462.196 130.577C453.281 121.756 436.781 116.756 422.887 130.239L462.196 130.577Z" fill="black" fill-opacity="0.5" stroke="black" stroke-width="1.5"/>
<path d="M410.781 41.7558C403.016 36.064 381.42 35.4232 374.781 39.0069L369.66 128.537L413.592 128.909L410.781 41.7558Z" fill="#906291" stroke="black" stroke-width="2"/>
<path d="M411.893 129.083C403.781 120.256 383.781 114.756 369.694 128.727L411.893 129.083Z" fill="black" fill-opacity="0.5" stroke="black" stroke-width="1.5"/>
<path d="M364.184 37.9959C355.841 32.2925 334.231 31.1884 325.281 34.7558L307.905 127.283L358.194 127.712L364.184 38.0058L364.184 37.9959Z" fill="#7FA1D5" stroke="black" stroke-width="2"/>
<path d="M357.038 127.689C348.781 118.756 322.781 110.756 308.483 127.275L357.038 127.689Z" fill="black" fill-opacity="0.5" stroke="black" stroke-width="1.5"/>
<path d="M314.379 33.2668C305.281 26.7558 285.298 24.4036 274.614 27.9561L243.371 126.065L295.972 126.51L314.379 33.2668Z" fill="#97BA3B" stroke="black" stroke-width="2"/>
<path d="M295.116 126.508C280.781 114.756 262.781 111.256 244.272 126.079L295.116 126.508Z" fill="black" fill-opacity="0.5" stroke="black" stroke-width="1.5"/>
<path d="M260.781 28.2558C250.281 18.2558 227.453 17.624 217.904 22.184L179.82 124.536L229.781 124.536L260.781 28.2558Z" fill="#FCC12E" stroke="black" stroke-width="2"/>
<path d="M228.781 124.468C220.497 116.34 196.282 108.756 180.933 124.468L228.781 124.468Z" fill="black" fill-opacity="0.5" stroke="black" stroke-width="1.5"/>
<path d="M205.971 21.4115C196.104 15.0345 177.468 12.5598 164.285 15.7607L123.377 123.39L167.887 123.773L205.971 21.4115Z" fill="#E88524" stroke="black" stroke-width="2"/>
<path d="M166.688 123.689C158.781 115.756 139.281 109.256 124.489 123.332L166.688 123.689Z" fill="black" fill-opacity="0.5" stroke="black" stroke-width="1.5"/>
<path d="M152.781 18.2558C144.28 11.2331 123.826 7.14069 114.667 11.3669L65.597 121.907L114.667 122.306L152.781 18.2558Z" fill="#D13316" stroke="black" stroke-width="2"/>
<path d="M111.263 122.293C103.281 113.756 78.2815 110.256 66.175 121.908L111.263 122.293Z" fill="black" fill-opacity="0.5" stroke="black" stroke-width="1.5"/>
<path d="M104.782 14.2558C95.9332 5.56842 79.0425 2.21475 67.7815 5.75578L4.78154 120.477L54.4518 120.477L104.782 14.2558Z" fill="#906291" stroke="#1D1D1B" stroke-width="2"/>
<path d="M53.245 120.294C46.2814 111.256 18.2015 105.508 5.28149 120.294L53.245 120.294Z" fill="black" fill-opacity="0.5" stroke="black" stroke-width="1.5"/>
<path d="M550.791 114.998C550.055 113.667 546.609 112.644 542.564 112.612C538.519 112.581 536.178 113.549 536.923 114.88C537.667 116.211 541.314 116.576 544.781 116.605C548.249 116.635 551.536 116.329 550.791 114.998Z" fill="#56351C"/>
<path d="M541.532 68.3171C540.795 66.9863 537.349 65.9625 533.304 65.9314C529.259 65.9002 526.919 66.8678 527.663 68.199C528.407 69.5302 532.055 69.8947 535.522 69.9243C538.989 69.9538 542.276 69.6483 541.532 68.3171V68.3171Z" fill="#56351C"/>
<path d="M499.359 112.864C498.623 111.534 495.177 110.51 491.132 110.479C487.087 110.448 484.747 111.415 485.491 112.746C486.235 114.078 489.882 114.442 493.35 114.472C496.817 114.501 500.104 114.196 499.359 112.864Z" fill="#56351C"/>
<path d="M491.337 63.9117C490.6 62.5809 487.154 61.5571 483.109 61.526C479.064 61.4948 476.724 62.4624 477.468 63.7936C478.212 65.1248 481.86 65.4893 485.327 65.5189C488.794 65.5484 492.081 65.2429 491.337 63.9117Z" fill="#56351C"/>
<path d="M448.956 111.916C448.219 110.585 444.774 109.561 440.729 109.53C436.684 109.499 434.343 110.466 435.087 111.798C435.832 113.129 439.479 113.493 442.946 113.523C446.413 113.552 449.7 113.247 448.956 111.916V111.916Z" fill="#56351C"/>
<path d="M445.374 59.8828C444.638 58.5519 441.192 57.5282 437.147 57.497C433.102 57.4659 430.761 58.4335 431.506 59.7647C432.25 61.0958 435.897 61.4604 439.364 61.49C442.832 61.5195 446.118 61.214 445.374 59.8828Z" fill="#56351C"/>
<path d="M397.165 109.819C396.428 108.488 392.982 107.464 388.937 107.433C384.892 107.402 382.552 108.37 383.296 109.701C384.04 111.032 387.688 111.397 391.155 111.426C394.622 111.456 397.909 111.15 397.165 109.819V109.819Z" fill="#56351C"/>
<path d="M398.625 56.5012C397.888 55.1703 394.443 54.1466 390.397 54.1155C386.352 54.0843 384.012 55.0519 384.756 56.3831C385.5 57.7142 389.148 58.0788 392.615 58.1084C396.082 58.1379 399.369 57.8324 398.625 56.5012V56.5012Z" fill="#56351C"/>
<path d="M341.328 107.691C340.591 106.36 337.146 105.337 333.101 105.306C329.055 105.274 326.715 106.242 327.459 107.573C328.203 108.904 331.851 109.269 335.318 109.298C338.785 109.328 342.072 109.022 341.328 107.691V107.691Z" fill="#56351C"/>
<path d="M349.375 52.7778C348.639 51.4469 345.193 50.4232 341.148 50.3921C337.103 50.3609 334.762 51.3285 335.507 52.6597C336.251 53.9908 339.898 54.3554 343.366 54.385C346.833 54.4145 350.12 54.109 349.375 52.7778V52.7778Z" fill="#56351C"/>
<path d="M282.97 106.196C282.234 104.865 278.788 103.841 274.743 103.81C270.698 103.779 268.358 104.747 269.102 106.078C269.846 107.409 273.494 107.774 276.961 107.803C280.428 107.833 283.715 107.527 282.97 106.196V106.196Z" fill="#56351C"/>
<path d="M297.447 48.3578C296.71 47.0269 293.265 46.0032 289.22 45.972C285.174 45.9409 282.834 46.9085 283.578 48.2396C284.323 49.5708 287.97 49.9354 291.437 49.9649C294.904 49.9945 298.191 49.6889 297.447 48.3578V48.3578Z" fill="#56351C"/>
<path d="M219.036 103.996C218.3 102.665 214.854 101.641 210.809 101.61C206.764 101.579 204.423 102.546 205.168 103.878C205.912 105.209 209.559 105.573 213.026 105.603C216.494 105.632 219.781 105.327 219.036 103.996V103.996Z" fill="#56351C"/>
<path d="M238.793 43.2197C238.057 41.8888 234.611 40.8651 230.566 40.834C226.521 40.8028 224.181 41.7704 224.925 43.1016C225.669 44.4327 229.316 44.7973 232.784 44.8269C236.251 44.8564 239.538 44.5509 238.793 43.2197V43.2197Z" fill="#56351C"/>
<path d="M183 39.1035C182.263 37.7726 178.818 36.7489 174.773 36.7178C170.727 36.6866 168.387 37.6542 169.131 38.9854C169.876 40.3165 173.523 40.6811 176.99 40.7107C180.457 40.7402 183.744 40.4347 183 39.1035V39.1035Z" fill="#56351C"/>
<path d="M159.732 101.838C158.996 100.507 155.55 99.4838 151.505 99.4526C147.46 99.4215 145.119 100.389 145.864 101.72C146.608 103.051 150.255 103.416 153.723 103.446C157.19 103.475 160.477 103.17 159.732 101.838V101.838Z" fill="#56351C"/>
<path d="M102.531 100.356C101.794 99.0254 98.3484 98.0017 94.3033 97.9706C90.2581 97.9394 87.9177 98.907 88.662 100.238C89.4063 101.569 93.0536 101.934 96.5208 101.963C99.9879 101.993 103.275 101.687 102.531 100.356V100.356Z" fill="#56351C"/>
<path d="M43.2267 98.199C42.4901 96.8681 39.0445 95.8444 34.9994 95.8132C30.9543 95.7821 28.6138 96.7497 29.3581 98.0808C30.1024 99.412 33.7498 99.7766 37.2169 99.8061C40.6841 99.8356 43.971 99.5301 43.2267 98.199V98.199Z" fill="#56351C"/>
<path d="M131.649 34.695C130.912 33.3641 127.467 32.3404 123.422 32.3092C119.376 32.2781 117.036 33.2457 117.78 34.5769C118.525 35.908 122.172 36.2726 125.639 36.3021C129.106 36.3317 132.393 36.0262 131.649 34.695V34.695Z" fill="#56351C"/>
<path d="M82.3594 29.8645C81.6228 28.5336 78.1773 27.5099 74.1321 27.4787C70.087 27.4476 67.7465 28.4152 68.4908 29.7464C69.2351 31.0775 72.8825 31.4421 76.3496 31.4716C79.8168 31.5012 83.1037 31.1956 82.3594 29.8645Z" fill="#56351C"/>
<path d="M550.791 114.998C550.055 113.667 546.609 112.644 542.564 112.612C538.519 112.581 536.178 113.549 536.923 114.88C537.667 116.211 541.314 116.576 544.781 116.605C548.249 116.635 551.536 116.329 550.791 114.998Z" stroke="black" stroke-width="1.5"/>
<path d="M541.532 68.3171C540.795 66.9862 537.349 65.9625 533.304 65.9314C529.259 65.9002 526.919 66.8678 527.663 68.199C528.407 69.5301 532.055 69.8947 535.522 69.9243C538.989 69.9538 542.276 69.6483 541.532 68.3171Z" stroke="black" stroke-width="1.5"/>
<path d="M499.359 112.864C498.623 111.534 495.177 110.51 491.132 110.479C487.087 110.448 484.747 111.415 485.491 112.746C486.235 114.078 489.882 114.442 493.35 114.472C496.817 114.501 500.104 114.196 499.359 112.864V112.864Z" stroke="black" stroke-width="1.5"/>
<path d="M491.337 63.9117C490.6 62.5809 487.154 61.5571 483.109 61.526C479.064 61.4948 476.724 62.4624 477.468 63.7936C478.212 65.1248 481.86 65.4893 485.327 65.5189C488.794 65.5484 492.081 65.2429 491.337 63.9117Z" stroke="black" stroke-width="1.5"/>
<path d="M448.956 111.916C448.219 110.585 444.774 109.561 440.729 109.53C436.684 109.499 434.343 110.466 435.087 111.798C435.832 113.129 439.479 113.493 442.946 113.523C446.413 113.552 449.7 113.247 448.956 111.916V111.916Z" stroke="black" stroke-width="1.5"/>
<path d="M445.374 59.8828C444.638 58.5519 441.192 57.5282 437.147 57.497C433.102 57.4659 430.761 58.4335 431.506 59.7647C432.25 61.0958 435.897 61.4604 439.364 61.49C442.832 61.5195 446.118 61.214 445.374 59.8828Z" stroke="black" stroke-width="1.5"/>
<path d="M397.165 109.819C396.428 108.488 392.982 107.464 388.937 107.433C384.892 107.402 382.552 108.37 383.296 109.701C384.04 111.032 387.688 111.397 391.155 111.426C394.622 111.456 397.909 111.15 397.165 109.819V109.819Z" stroke="black" stroke-width="1.5"/>
<path d="M398.625 56.5012C397.888 55.1703 394.443 54.1466 390.397 54.1155C386.352 54.0843 384.012 55.0519 384.756 56.3831C385.5 57.7142 389.148 58.0788 392.615 58.1084C396.082 58.1379 399.369 57.8324 398.625 56.5012V56.5012Z" stroke="black" stroke-width="1.5"/>
<path d="M341.328 107.691C340.591 106.36 337.146 105.337 333.101 105.306C329.055 105.274 326.715 106.242 327.459 107.573C328.203 108.904 331.851 109.269 335.318 109.298C338.785 109.328 342.072 109.022 341.328 107.691V107.691Z" stroke="black" stroke-width="1.5"/>
<path d="M349.375 52.7778C348.639 51.4469 345.193 50.4232 341.148 50.3921C337.103 50.3609 334.762 51.3285 335.507 52.6597C336.251 53.9908 339.898 54.3554 343.366 54.385C346.833 54.4145 350.12 54.109 349.375 52.7778V52.7778Z" stroke="black" stroke-width="1.5"/>
<path d="M282.97 106.196C282.234 104.865 278.788 103.841 274.743 103.81C270.698 103.779 268.358 104.747 269.102 106.078C269.846 107.409 273.494 107.774 276.961 107.803C280.428 107.833 283.715 107.527 282.97 106.196V106.196Z" stroke="black" stroke-width="1.5"/>
<path d="M297.447 48.3578C296.71 47.0269 293.265 46.0032 289.22 45.972C285.174 45.9409 282.834 46.9085 283.578 48.2396C284.323 49.5708 287.97 49.9354 291.437 49.9649C294.904 49.9945 298.191 49.6889 297.447 48.3578V48.3578Z" stroke="black" stroke-width="1.5"/>
<path d="M219.036 103.996C218.3 102.665 214.854 101.641 210.809 101.61C206.764 101.579 204.423 102.546 205.168 103.878C205.912 105.209 209.559 105.573 213.026 105.603C216.494 105.632 219.781 105.327 219.036 103.996V103.996Z" stroke="black" stroke-width="1.5"/>
<path d="M238.793 43.2197C238.057 41.8888 234.611 40.8651 230.566 40.834C226.521 40.8028 224.181 41.7704 224.925 43.1016C225.669 44.4327 229.316 44.7973 232.784 44.8269C236.251 44.8564 239.538 44.5509 238.793 43.2197V43.2197Z" stroke="black" stroke-width="1.5"/>
<path d="M183 39.1035C182.263 37.7726 178.818 36.7489 174.773 36.7178C170.727 36.6866 168.387 37.6542 169.131 38.9854C169.876 40.3165 173.523 40.6811 176.99 40.7107C180.457 40.7402 183.744 40.4347 183 39.1035V39.1035Z" stroke="black" stroke-width="1.5"/>
<path d="M159.732 101.838C158.996 100.507 155.55 99.4838 151.505 99.4526C147.46 99.4215 145.119 100.389 145.864 101.72C146.608 103.051 150.255 103.416 153.723 103.446C157.19 103.475 160.477 103.17 159.732 101.838V101.838Z" stroke="black" stroke-width="1.5"/>
<path d="M102.531 100.356C101.794 99.0254 98.3484 98.0017 94.3033 97.9706C90.2581 97.9394 87.9177 98.907 88.662 100.238C89.4063 101.569 93.0536 101.934 96.5208 101.963C99.9879 101.993 103.275 101.687 102.531 100.356V100.356Z" stroke="black" stroke-width="1.5"/>
<path d="M43.2267 98.199C42.4901 96.8681 39.0445 95.8444 34.9994 95.8132C30.9543 95.7821 28.6138 96.7497 29.3581 98.0808C30.1024 99.412 33.7498 99.7766 37.2169 99.8061C40.6841 99.8356 43.971 99.5301 43.2267 98.199V98.199Z" stroke="black" stroke-width="1.5"/>
<path d="M131.649 34.695C130.912 33.3641 127.467 32.3404 123.422 32.3092C119.376 32.2781 117.036 33.2457 117.78 34.5769C118.525 35.908 122.172 36.2726 125.639 36.3021C129.106 36.3317 132.393 36.0262 131.649 34.695V34.695Z" stroke="black" stroke-width="1.5"/>
<path d="M82.3594 29.8645C81.6228 28.5336 78.1773 27.5099 74.1321 27.4787C70.087 27.4476 67.7465 28.4152 68.4908 29.7464C69.2351 31.0775 72.8825 31.4421 76.3496 31.4716C79.8168 31.5012 83.1037 31.1956 82.3594 29.8645Z" stroke="black" stroke-width="1.5"/>
</g>
<defs>
<clipPath id="clip0_9_113">
<rect width="572.566" height="133" fill="white" transform="matrix(-0.999308 -0.0371905 -0.0371905 0.999308 577.116 21.2941)"/>
</clipPath>
</defs>
</svg>
